<mxfile host="app.diagrams.net" agent="Mozilla/5.0 (X11; Linux x86_64) AppleWebKit/537.36 (KHTML, like Gecko) Chrome/140.0.0.0 Safari/537.36" version="28.2.8">
  <diagram name="Page-1" id="pybcmS3-HhN2clkAalfD">
    <mxGraphModel dx="2526" dy="1407" grid="1" gridSize="10" guides="1" tooltips="1" connect="1" arrows="1" fold="1" page="1" pageScale="1" pageWidth="1654" pageHeight="1169" math="0" shadow="0">
      <root>
        <mxCell id="0" />
        <mxCell id="1" parent="0" />
        <mxCell id="etjp8YYBh9-xa4xGj5qL-1" value="Market data" style="ellipse;shape=cloud;whiteSpace=wrap;html=1;" vertex="1" parent="1">
          <mxGeometry x="20" y="160" width="120" height="80" as="geometry" />
        </mxCell>
        <mxCell id="etjp8YYBh9-xa4xGj5qL-6" value="" style="edgeStyle=orthogonalEdgeStyle;rounded=0;orthogonalLoop=1;jettySize=auto;html=1;" edge="1" parent="1" source="etjp8YYBh9-xa4xGj5qL-3" target="etjp8YYBh9-xa4xGj5qL-4">
          <mxGeometry relative="1" as="geometry" />
        </mxCell>
        <mxCell id="etjp8YYBh9-xa4xGj5qL-3" value="" style="rounded=1;whiteSpace=wrap;html=1;fillColor=#99FFFF;" vertex="1" parent="1">
          <mxGeometry x="150" y="90" width="300" height="330" as="geometry" />
        </mxCell>
        <mxCell id="etjp8YYBh9-xa4xGj5qL-29" value="" style="edgeStyle=orthogonalEdgeStyle;rounded=0;orthogonalLoop=1;jettySize=auto;html=1;" edge="1" parent="1" source="etjp8YYBh9-xa4xGj5qL-4" target="etjp8YYBh9-xa4xGj5qL-27">
          <mxGeometry relative="1" as="geometry" />
        </mxCell>
        <mxCell id="etjp8YYBh9-xa4xGj5qL-33" value="" style="edgeStyle=orthogonalEdgeStyle;rounded=0;orthogonalLoop=1;jettySize=auto;html=1;" edge="1" parent="1" source="etjp8YYBh9-xa4xGj5qL-4">
          <mxGeometry relative="1" as="geometry">
            <mxPoint x="1080" y="255" as="targetPoint" />
          </mxGeometry>
        </mxCell>
        <mxCell id="etjp8YYBh9-xa4xGj5qL-4" value="" style="rounded=1;whiteSpace=wrap;html=1;fillColor=#99FFFF;" vertex="1" parent="1">
          <mxGeometry x="550" y="90" width="300" height="330" as="geometry" />
        </mxCell>
        <mxCell id="etjp8YYBh9-xa4xGj5qL-5" value="&lt;font style=&quot;font-size: 18px;&quot;&gt;&lt;b&gt;Data service&lt;/b&gt;&lt;/font&gt;" style="text;html=1;whiteSpace=wrap;strokeColor=none;fillColor=none;align=center;verticalAlign=middle;rounded=0;" vertex="1" parent="1">
          <mxGeometry x="242.5" y="110" width="115" height="30" as="geometry" />
        </mxCell>
        <mxCell id="etjp8YYBh9-xa4xGj5qL-7" value="File(Csv, xml, json)" style="text;html=1;whiteSpace=wrap;strokeColor=none;fillColor=none;align=center;verticalAlign=middle;rounded=0;" vertex="1" parent="1">
          <mxGeometry x="470" y="220" width="60" height="30" as="geometry" />
        </mxCell>
        <mxCell id="etjp8YYBh9-xa4xGj5qL-8" value="Database(Mys&lt;span style=&quot;background-color: transparent; color: light-dark(rgb(0, 0, 0), rgb(255, 255, 255));&quot;&gt;ql, mongoDB, postgres,...)&lt;/span&gt;" style="text;html=1;whiteSpace=wrap;strokeColor=none;fillColor=none;align=center;verticalAlign=middle;rounded=0;" vertex="1" parent="1">
          <mxGeometry x="470" y="270" width="60" height="30" as="geometry" />
        </mxCell>
        <mxCell id="etjp8YYBh9-xa4xGj5qL-10" value="&lt;font style=&quot;font-size: 18px;&quot;&gt;&lt;b&gt;Signal service&lt;/b&gt;&lt;/font&gt;" style="text;html=1;whiteSpace=wrap;strokeColor=none;fillColor=none;align=center;verticalAlign=middle;rounded=0;" vertex="1" parent="1">
          <mxGeometry x="642.5" y="110" width="115" height="30" as="geometry" />
        </mxCell>
        <mxCell id="etjp8YYBh9-xa4xGj5qL-30" value="" style="edgeStyle=orthogonalEdgeStyle;rounded=0;orthogonalLoop=1;jettySize=auto;html=1;" edge="1" parent="1" source="etjp8YYBh9-xa4xGj5qL-11" target="etjp8YYBh9-xa4xGj5qL-27">
          <mxGeometry relative="1" as="geometry" />
        </mxCell>
        <mxCell id="etjp8YYBh9-xa4xGj5qL-35" style="edgeStyle=orthogonalEdgeStyle;rounded=0;orthogonalLoop=1;jettySize=auto;html=1;entryX=0;entryY=0.5;entryDx=0;entryDy=0;" edge="1" parent="1" source="etjp8YYBh9-xa4xGj5qL-11" target="etjp8YYBh9-xa4xGj5qL-13">
          <mxGeometry relative="1" as="geometry" />
        </mxCell>
        <mxCell id="etjp8YYBh9-xa4xGj5qL-11" value="" style="rounded=1;whiteSpace=wrap;html=1;fillColor=#99FFFF;" vertex="1" parent="1">
          <mxGeometry x="1010" y="90" width="300" height="330" as="geometry" />
        </mxCell>
        <mxCell id="etjp8YYBh9-xa4xGj5qL-12" value="&lt;font style=&quot;font-size: 18px;&quot;&gt;&lt;b&gt;Execution service&lt;/b&gt;&lt;/font&gt;" style="text;html=1;whiteSpace=wrap;strokeColor=none;fillColor=none;align=center;verticalAlign=middle;rounded=0;" vertex="1" parent="1">
          <mxGeometry x="1102.5" y="110" width="115" height="30" as="geometry" />
        </mxCell>
        <mxCell id="etjp8YYBh9-xa4xGj5qL-65" style="edgeStyle=orthogonalEdgeStyle;rounded=0;orthogonalLoop=1;jettySize=auto;html=1;entryX=0;entryY=0.5;entryDx=0;entryDy=0;" edge="1" parent="1" source="etjp8YYBh9-xa4xGj5qL-13" target="etjp8YYBh9-xa4xGj5qL-16">
          <mxGeometry relative="1" as="geometry" />
        </mxCell>
        <mxCell id="etjp8YYBh9-xa4xGj5qL-13" value="" style="rounded=1;whiteSpace=wrap;html=1;fillColor=#99FFFF;" vertex="1" parent="1">
          <mxGeometry x="1480" y="90" width="300" height="330" as="geometry" />
        </mxCell>
        <mxCell id="etjp8YYBh9-xa4xGj5qL-14" value="&lt;font style=&quot;font-size: 18px;&quot;&gt;&lt;b&gt;Log service&lt;/b&gt;&lt;/font&gt;" style="text;html=1;whiteSpace=wrap;strokeColor=none;fillColor=none;align=center;verticalAlign=middle;rounded=0;" vertex="1" parent="1">
          <mxGeometry x="1572.5" y="110" width="115" height="30" as="geometry" />
        </mxCell>
        <mxCell id="etjp8YYBh9-xa4xGj5qL-16" value="" style="rounded=1;whiteSpace=wrap;html=1;fillColor=#99FFFF;" vertex="1" parent="1">
          <mxGeometry x="1877.5" y="90" width="300" height="330" as="geometry" />
        </mxCell>
        <mxCell id="etjp8YYBh9-xa4xGj5qL-17" value="&lt;font style=&quot;font-size: 18px;&quot;&gt;&lt;b&gt;Monitoring service&lt;/b&gt;&lt;/font&gt;" style="text;html=1;whiteSpace=wrap;strokeColor=none;fillColor=none;align=center;verticalAlign=middle;rounded=0;" vertex="1" parent="1">
          <mxGeometry x="1970" y="110" width="115" height="30" as="geometry" />
        </mxCell>
        <mxCell id="etjp8YYBh9-xa4xGj5qL-20" value="&lt;b&gt;&lt;font style=&quot;color: rgb(33, 22, 255);&quot;&gt;Res&lt;span style=&quot;background-color: transparent;&quot;&gt;ample&lt;/span&gt;&lt;/font&gt;&lt;/b&gt;" style="text;html=1;whiteSpace=wrap;strokeColor=none;fillColor=none;align=center;verticalAlign=middle;rounded=0;" vertex="1" parent="1">
          <mxGeometry x="182.5" y="190" width="60" height="30" as="geometry" />
        </mxCell>
        <mxCell id="etjp8YYBh9-xa4xGj5qL-21" value="&lt;b&gt;&lt;font style=&quot;color: rgb(33, 22, 255);&quot;&gt;RSI&lt;/font&gt;&lt;/b&gt;" style="text;html=1;whiteSpace=wrap;strokeColor=none;fillColor=none;align=center;verticalAlign=middle;rounded=0;" vertex="1" parent="1">
          <mxGeometry x="297.5" y="190" width="60" height="30" as="geometry" />
        </mxCell>
        <mxCell id="etjp8YYBh9-xa4xGj5qL-22" value="&lt;b&gt;&lt;font style=&quot;color: rgb(33, 22, 255);&quot;&gt;ATR&lt;/font&gt;&lt;/b&gt;" style="text;html=1;whiteSpace=wrap;strokeColor=none;fillColor=none;align=center;verticalAlign=middle;rounded=0;" vertex="1" parent="1">
          <mxGeometry x="180" y="240" width="60" height="30" as="geometry" />
        </mxCell>
        <mxCell id="etjp8YYBh9-xa4xGj5qL-23" value="&lt;b&gt;&lt;font style=&quot;color: rgb(33, 22, 255);&quot;&gt;EMA&lt;/font&gt;&lt;/b&gt;" style="text;html=1;whiteSpace=wrap;strokeColor=none;fillColor=none;align=center;verticalAlign=middle;rounded=0;" vertex="1" parent="1">
          <mxGeometry x="240" y="350" width="60" height="30" as="geometry" />
        </mxCell>
        <mxCell id="etjp8YYBh9-xa4xGj5qL-24" value="&lt;b&gt;&lt;font style=&quot;color: rgb(33, 22, 255);&quot;&gt;Momentum&lt;/font&gt;&lt;/b&gt;" style="text;html=1;whiteSpace=wrap;strokeColor=none;fillColor=none;align=center;verticalAlign=middle;rounded=0;" vertex="1" parent="1">
          <mxGeometry x="310" y="280" width="60" height="30" as="geometry" />
        </mxCell>
        <mxCell id="etjp8YYBh9-xa4xGj5qL-25" value="&lt;b&gt;&lt;font style=&quot;color: rgb(33, 22, 255);&quot;&gt;Candlestick pattern&lt;/font&gt;&lt;/b&gt;" style="text;html=1;whiteSpace=wrap;strokeColor=none;fillColor=none;align=center;verticalAlign=middle;rounded=0;" vertex="1" parent="1">
          <mxGeometry x="350" y="370" width="60" height="30" as="geometry" />
        </mxCell>
        <mxCell id="etjp8YYBh9-xa4xGj5qL-27" value="" style="rounded=1;whiteSpace=wrap;html=1;fillColor=#99FFFF;" vertex="1" parent="1">
          <mxGeometry x="560" y="480" width="860" height="300" as="geometry" />
        </mxCell>
        <mxCell id="etjp8YYBh9-xa4xGj5qL-31" value="&lt;font style=&quot;font-size: 18px;&quot;&gt;&lt;b&gt;Backtest&lt;/b&gt;&lt;/font&gt;" style="text;html=1;whiteSpace=wrap;strokeColor=none;fillColor=none;align=center;verticalAlign=middle;rounded=0;" vertex="1" parent="1">
          <mxGeometry x="932.5" y="490" width="115" height="30" as="geometry" />
        </mxCell>
        <mxCell id="etjp8YYBh9-xa4xGj5qL-37" value="Row data(json, object)" style="text;html=1;whiteSpace=wrap;strokeColor=none;fillColor=none;align=center;verticalAlign=middle;rounded=0;" vertex="1" parent="1">
          <mxGeometry x="860" y="215" width="140" height="30" as="geometry" />
        </mxCell>
        <mxCell id="etjp8YYBh9-xa4xGj5qL-38" value="Worker (Sắp xếp các signals, xử lý, chọn lọc, gửi request sang broker)" style="rounded=1;whiteSpace=wrap;html=1;" vertex="1" parent="1">
          <mxGeometry x="1030" y="180" width="80" height="180" as="geometry" />
        </mxCell>
        <mxCell id="etjp8YYBh9-xa4xGj5qL-39" value="Broker (Quản lý order, deal, SL, TP)" style="rounded=1;whiteSpace=wrap;html=1;" vertex="1" parent="1">
          <mxGeometry x="1169" y="180" width="120" height="180" as="geometry" />
        </mxCell>
        <mxCell id="etjp8YYBh9-xa4xGj5qL-41" value="Market data" style="shape=cylinder3;whiteSpace=wrap;html=1;boundedLbl=1;backgroundOutline=1;size=15;" vertex="1" parent="1">
          <mxGeometry x="40" y="270" width="60" height="80" as="geometry" />
        </mxCell>
        <mxCell id="etjp8YYBh9-xa4xGj5qL-47" value="Strategy A" style="rounded=1;whiteSpace=wrap;html=1;" vertex="1" parent="1">
          <mxGeometry x="570" y="170" width="120" height="60" as="geometry" />
        </mxCell>
        <mxCell id="etjp8YYBh9-xa4xGj5qL-48" value="Strategy C" style="rounded=1;whiteSpace=wrap;html=1;" vertex="1" parent="1">
          <mxGeometry x="570" y="260" width="120" height="60" as="geometry" />
        </mxCell>
        <mxCell id="etjp8YYBh9-xa4xGj5qL-49" value="Strategy B" style="rounded=1;whiteSpace=wrap;html=1;" vertex="1" parent="1">
          <mxGeometry x="700" y="170" width="120" height="60" as="geometry" />
        </mxCell>
        <mxCell id="etjp8YYBh9-xa4xGj5qL-50" value="Strategy D" style="rounded=1;whiteSpace=wrap;html=1;" vertex="1" parent="1">
          <mxGeometry x="700" y="260" width="120" height="60" as="geometry" />
        </mxCell>
        <mxCell id="etjp8YYBh9-xa4xGj5qL-51" value="Strategy N" style="rounded=1;whiteSpace=wrap;html=1;" vertex="1" parent="1">
          <mxGeometry x="650" y="340" width="120" height="60" as="geometry" />
        </mxCell>
        <mxCell id="etjp8YYBh9-xa4xGj5qL-52" value="Transaction History" style="rounded=1;whiteSpace=wrap;html=1;" vertex="1" parent="1">
          <mxGeometry x="1500" y="170" width="120" height="60" as="geometry" />
        </mxCell>
        <mxCell id="etjp8YYBh9-xa4xGj5qL-53" value="Errors/Exceptions" style="rounded=1;whiteSpace=wrap;html=1;" vertex="1" parent="1">
          <mxGeometry x="1510" y="260" width="120" height="60" as="geometry" />
        </mxCell>
        <mxCell id="etjp8YYBh9-xa4xGj5qL-54" value="Chart" style="rounded=1;whiteSpace=wrap;html=1;" vertex="1" parent="1">
          <mxGeometry x="1890" y="170" width="120" height="60" as="geometry" />
        </mxCell>
        <mxCell id="etjp8YYBh9-xa4xGj5qL-55" value="Signals" style="rounded=1;whiteSpace=wrap;html=1;" vertex="1" parent="1">
          <mxGeometry x="2040" y="170" width="120" height="60" as="geometry" />
        </mxCell>
        <mxCell id="etjp8YYBh9-xa4xGj5qL-56" value="Orders" style="rounded=1;whiteSpace=wrap;html=1;" vertex="1" parent="1">
          <mxGeometry x="1890" y="250" width="120" height="60" as="geometry" />
        </mxCell>
        <mxCell id="etjp8YYBh9-xa4xGj5qL-57" value="Deals" style="rounded=1;whiteSpace=wrap;html=1;" vertex="1" parent="1">
          <mxGeometry x="2040" y="250" width="120" height="60" as="geometry" />
        </mxCell>
        <mxCell id="etjp8YYBh9-xa4xGj5qL-58" value="Transactions" style="rounded=1;whiteSpace=wrap;html=1;" vertex="1" parent="1">
          <mxGeometry x="1890" y="330" width="120" height="60" as="geometry" />
        </mxCell>
        <mxCell id="etjp8YYBh9-xa4xGj5qL-59" value="Signals" style="rounded=1;whiteSpace=wrap;html=1;" vertex="1" parent="1">
          <mxGeometry x="1640" y="170" width="120" height="60" as="geometry" />
        </mxCell>
        <mxCell id="etjp8YYBh9-xa4xGj5qL-60" value="Exposure Time [%]" style="rounded=1;whiteSpace=wrap;html=1;" vertex="1" parent="1">
          <mxGeometry x="590" y="530" width="120" height="60" as="geometry" />
        </mxCell>
        <mxCell id="etjp8YYBh9-xa4xGj5qL-61" value="Risk/Reward&lt;div&gt;Và nhiều thông tin khác&lt;/div&gt;" style="rounded=1;whiteSpace=wrap;html=1;" vertex="1" parent="1">
          <mxGeometry x="2040" y="330" width="120" height="60" as="geometry" />
        </mxCell>
        <mxCell id="etjp8YYBh9-xa4xGj5qL-62" value="Text" style="text;html=1;whiteSpace=wrap;strokeColor=none;fillColor=none;align=center;verticalAlign=middle;rounded=0;" vertex="1" parent="1">
          <mxGeometry x="1080" y="340" width="60" height="30" as="geometry" />
        </mxCell>
        <mxCell id="etjp8YYBh9-xa4xGj5qL-63" value="Grafana, metabase, react UI" style="text;html=1;whiteSpace=wrap;strokeColor=none;fillColor=none;align=center;verticalAlign=middle;rounded=0;" vertex="1" parent="1">
          <mxGeometry x="1900" y="420" width="270" height="30" as="geometry" />
        </mxCell>
        <mxCell id="etjp8YYBh9-xa4xGj5qL-66" value="Return [%]&amp;nbsp;&amp;nbsp;" style="rounded=1;whiteSpace=wrap;html=1;" vertex="1" parent="1">
          <mxGeometry x="730" y="530" width="120" height="60" as="geometry" />
        </mxCell>
        <mxCell id="etjp8YYBh9-xa4xGj5qL-67" value="Buy &amp;amp; Hold Return [%]" style="rounded=1;whiteSpace=wrap;html=1;" vertex="1" parent="1">
          <mxGeometry x="880" y="530" width="120" height="60" as="geometry" />
        </mxCell>
        <mxCell id="etjp8YYBh9-xa4xGj5qL-68" value="Return (Ann.) [%]" style="rounded=1;whiteSpace=wrap;html=1;" vertex="1" parent="1">
          <mxGeometry x="1020" y="530" width="120" height="60" as="geometry" />
        </mxCell>
        <mxCell id="etjp8YYBh9-xa4xGj5qL-69" value="Sortino Ratio&amp;nbsp;" style="rounded=1;whiteSpace=wrap;html=1;" vertex="1" parent="1">
          <mxGeometry x="730" y="610" width="120" height="60" as="geometry" />
        </mxCell>
        <mxCell id="etjp8YYBh9-xa4xGj5qL-70" value="Sharpe Ratio" style="rounded=1;whiteSpace=wrap;html=1;" vertex="1" parent="1">
          <mxGeometry x="590" y="610" width="120" height="60" as="geometry" />
        </mxCell>
        <mxCell id="etjp8YYBh9-xa4xGj5qL-71" value="Volatility (Ann.) [%]&amp;nbsp;" style="rounded=1;whiteSpace=wrap;html=1;" vertex="1" parent="1">
          <mxGeometry x="1150" y="530" width="120" height="60" as="geometry" />
        </mxCell>
        <mxCell id="etjp8YYBh9-xa4xGj5qL-72" value="CAGR [%]" style="rounded=1;whiteSpace=wrap;html=1;" vertex="1" parent="1">
          <mxGeometry x="1289" y="530" width="120" height="60" as="geometry" />
        </mxCell>
        <mxCell id="etjp8YYBh9-xa4xGj5qL-73" value="Calmar Ratio" style="rounded=1;whiteSpace=wrap;html=1;" vertex="1" parent="1">
          <mxGeometry x="880" y="610" width="120" height="60" as="geometry" />
        </mxCell>
        <mxCell id="etjp8YYBh9-xa4xGj5qL-74" value="Max. Drawdown [%]&amp;nbsp;" style="rounded=1;whiteSpace=wrap;html=1;" vertex="1" parent="1">
          <mxGeometry x="1020" y="610" width="120" height="60" as="geometry" />
        </mxCell>
        <mxCell id="etjp8YYBh9-xa4xGj5qL-75" value="Avg. Drawdown [%]" style="rounded=1;whiteSpace=wrap;html=1;" vertex="1" parent="1">
          <mxGeometry x="1150" y="610" width="120" height="60" as="geometry" />
        </mxCell>
        <mxCell id="etjp8YYBh9-xa4xGj5qL-76" value="Avg. Drawdown Duration" style="rounded=1;whiteSpace=wrap;html=1;" vertex="1" parent="1">
          <mxGeometry x="1289" y="610" width="120" height="60" as="geometry" />
        </mxCell>
        <mxCell id="etjp8YYBh9-xa4xGj5qL-77" value="Max. Drawdown Duration" style="rounded=1;whiteSpace=wrap;html=1;" vertex="1" parent="1">
          <mxGeometry x="590" y="690" width="120" height="60" as="geometry" />
        </mxCell>
        <mxCell id="etjp8YYBh9-xa4xGj5qL-78" value="Win Rate [%]" style="rounded=1;whiteSpace=wrap;html=1;" vertex="1" parent="1">
          <mxGeometry x="730" y="690" width="120" height="60" as="geometry" />
        </mxCell>
        <mxCell id="etjp8YYBh9-xa4xGj5qL-79" value="Best Trade [%]" style="rounded=1;whiteSpace=wrap;html=1;" vertex="1" parent="1">
          <mxGeometry x="880" y="690" width="120" height="60" as="geometry" />
        </mxCell>
        <mxCell id="etjp8YYBh9-xa4xGj5qL-80" value="Worst Trade [%]" style="rounded=1;whiteSpace=wrap;html=1;" vertex="1" parent="1">
          <mxGeometry x="1020" y="690" width="120" height="60" as="geometry" />
        </mxCell>
      </root>
    </mxGraphModel>
  </diagram>
</mxfile>
